<?xml version="1.0" encoding="utf-8"?>
<!-- Generator: Adobe Illustrator 22.0.0, SVG Export Plug-In . SVG Version: 6.00 Build 0)  -->
<svg version="1.1" id="Calque_1" xmlns="http://www.w3.org/2000/svg" xmlns:xlink="http://www.w3.org/1999/xlink" x="0px" y="0px"
	 viewBox="0 0 97.9 109.1" style="enable-background:new 0 0 97.9 109.1;" xml:space="preserve">
<style type="text/css">
	.st0{fill:#FFFFFF;}
</style>
<g>
	<path class="st0" d="M19.5,100.5c-1.9,0-3.5-1.6-3.5-3.5V20.8c0-5.4,4.8-9.8,10.8-9.8c14.7,0,35.1-3.3,44.7,11.1
		c2.2,3.3,3.9,8.5,3.9,12.5c0,14.7-13.9,21.9-22.2,24l29,35.3c1.2,1.5,1,3.7-0.5,4.9c-1.5,1.2-3.7,1-4.9-0.5L44.4,59h-9.6
		c-4.3,0-7.8-3.8-7.8-8.5V42c0-4,2.2-5.2,3.2-5.6c1-0.4,3.5-0.9,6.3,2.1l4.1,4.7c0.2,0.2,0.4,0.5,0.5,0.8l6.6,8h3.2
		c2.5-0.6,17.5-4.7,17.5-17.4c0-18.9-23.2-16.4-35.7-16.6c-2,0-4,0-6,0s-3.8,1.3-3.8,2.8V97C23,98.9,21.4,100.5,19.5,100.5z
		 M34,46.3v4.2c0,1,0.6,1.5,0.8,1.5h3.9l-3.5-4.3c-0.2-0.2-0.3-0.4-0.4-0.6L34,46.3z"/>
</g>
</svg>
